<svg id="svg" version="1.1" xmlns="http://www.w3.org/2000/svg" xmlns:xlink="http://www.w3.org/1999/xlink" width="400" height="400" viewBox="0, 0, 400,400"><g id="svgg"><path id="path0" d="M39.983 42.017 L 2.125 80.034 67.070 145.069 L 132.016 210.104 82.023 259.977 C 29.165 312.708,23.433 322.363,16.931 369.608 L 14.783 385.217 30.392 383.069 C 83.910 375.704,77.168 380.994,237.093 220.854 L 384.000 73.749 384.000 55.420 C 384.000 29.827,370.234 16.000,344.755 16.000 C 326.739 16.000,326.154 16.443,268.194 73.940 L 209.787 131.881 145.941 67.940 C 110.825 32.773,81.137 4.000,79.968 4.000 C 78.799 4.000,60.806 21.108,39.983 42.017 M86.215 36.349 C 87.694 38.740,86.924 42.676,84.506 45.094 C 77.667 51.933,91.302 65.559,98.777 59.355 C 109.499 50.456,114.775 62.530,104.803 73.146 C 91.361 87.454,104.546 100.639,118.854 87.197 C 129.195 77.483,142.747 82.853,132.855 92.745 C 125.694 99.906,138.969 113.836,146.777 107.355 C 157.499 98.456,162.775 110.530,152.803 121.146 C 139.361 135.454,152.546 148.639,166.854 135.197 C 177.399 125.291,189.555 130.487,180.726 141.126 C 177.333 145.214,177.394 147.794,180.971 151.371 C 184.679 155.079,181.280 160.624,165.827 176.078 L 145.901 196.004 88.039 138.039 L 30.177 80.074 53.963 56.037 C 78.739 31.000,81.767 29.152,86.215 36.349 M216.121 213.864 L 80.059 349.926 65.074 334.941 L 50.089 319.955 185.950 184.050 L 321.811 48.145 336.997 62.974 L 352.183 77.802 216.121 213.864 M258.666 207.305 C 246.779 219.712,255.211 239.189,267.255 227.145 C 277.147 217.253,282.517 230.805,272.803 241.146 C 259.361 255.454,272.546 268.639,286.854 255.197 C 297.470 245.225,309.544 250.501,300.645 261.223 C 294.164 269.031,308.094 282.306,315.255 275.145 C 325.147 265.253,330.517 278.805,320.803 289.146 C 307.361 303.454,320.546 316.639,334.854 303.197 C 345.195 293.483,358.747 298.853,348.855 308.745 C 341.339 316.261,354.949 329.644,363.607 323.252 C 367.123 320.656,358.753 330.091,345.007 344.219 L 320.014 369.906 264.051 314.051 C 210.860 260.962,207.744 258.541,201.124 265.162 C 194.504 271.782,197.274 275.242,257.074 335.043 L 319.990 397.958 358.958 358.991 L 397.926 320.023 336.011 258.011 C 265.977 187.868,272.924 192.422,258.666 207.305 " stroke="none" fill="#000000" fill-rule="evenodd"></path></g></svg>