<svg id="svg" xmlns="http://www.w3.org/2000/svg" xmlns:xlink="http://www.w3.org/1999/xlink" width="400" height="400" viewBox="0, 0, 400,400"><g id="svgg"><path id="path0" d="M158.792 29.539 C 76.365 60.222,52.866 161.676,112.284 230.328 C 134.312 255.779,136.000 261.591,136.000 311.975 C 136.000 358.253,139.574 368.000,156.544 368.000 C 160.929 368.000,169.060 373.400,174.614 380.000 C 182.590 389.479,187.923 392.000,200.000 392.000 C 212.077 392.000,217.410 389.479,225.386 380.000 C 230.940 373.400,239.071 368.000,243.456 368.000 C 260.224 368.000,264.000 358.114,264.000 314.214 C 264.000 258.684,265.939 251.600,288.057 226.324 C 371.363 131.126,275.977 -14.082,158.792 29.539 M240.000 50.643 C 305.077 77.361,321.358 159.609,272.229 213.457 C 250.716 237.037,248.000 244.017,248.000 275.737 L 248.000 304.000 200.000 304.000 L 152.000 304.000 152.000 277.737 C 152.000 247.892,149.136 240.872,127.127 216.758 C 51.747 134.173,137.186 8.432,240.000 50.643 M160.000 151.188 C 160.000 155.142,167.200 165.407,176.000 174.000 L 192.000 189.624 192.000 238.812 C 192.000 285.333,192.434 288.000,200.000 288.000 C 207.566 288.000,208.000 285.333,208.000 238.812 L 208.000 189.624 224.000 174.000 C 240.725 157.668,244.912 144.000,233.190 144.000 C 229.445 144.000,220.445 149.753,213.190 156.785 L 200.000 169.569 186.810 156.785 C 172.179 142.604,160.000 140.062,160.000 151.188 M248.000 331.200 C 248.000 349.354,241.894 352.000,200.000 352.000 C 158.106 352.000,152.000 349.354,152.000 331.200 L 152.000 320.000 200.000 320.000 L 248.000 320.000 248.000 331.200 M204.800 372.800 C 201.067 376.533,198.933 376.533,195.200 372.800 C 191.467 369.067,192.533 368.000,200.000 368.000 C 207.467 368.000,208.533 369.067,204.800 372.800 " stroke="none" fill="#000000" fill-rule="evenodd"></path></g></svg>